<svg width="927" height="264" viewBox="0 0 927 264" fill="none" xmlns="http://www.w3.org/2000/svg">
<path d="M634.599 163.151C634.231 164.225 632.622 167.3 632.84 168.471C606.053 184.26 577.959 197.616 551.582 214.178C550.306 214.98 536.983 222.722 537.018 222.248C537.229 219.36 538.136 216.633 538.901 213.86C539.376 212.137 537.203 213.917 537.978 212.295C540.674 206.652 543.033 198.648 546.302 193.287C547.333 191.596 551.136 188.707 552.591 187.371C555.122 185.047 557.767 183.16 560.735 181.411C579.9 170.114 598.19 157.457 617.736 146.781C624.099 143.306 630.587 140.089 636.886 136.492C638.667 135.475 642.144 131.802 642.435 133.833C642.623 135.149 642.666 136.57 642.641 137.898C642.569 141.656 640.504 145.126 639.283 148.7C637.647 153.492 636.238 158.358 634.599 163.151Z" fill="url(#paint0_linear_193_12)" stroke="black" stroke-width="5" stroke-linecap="round"/>
<path d="M626.534 117.807C626.663 117.943 626.856 118.139 627.134 118.412C630.437 121.657 626.031 122.019 622.435 123.725C608.738 130.223 595.681 139.682 583.608 148.543C573.184 156.195 562.416 163.611 551.277 170.177C546.939 172.734 542.361 176.374 537.627 178.159C536.975 178.404 536.264 177.841 535.652 177.648C528.986 175.547 522.496 174.728 515.501 173.618C512.929 173.21 510.358 172.791 507.758 172.611C506.99 172.558 504.929 173.087 505.451 172.522C506.383 171.515 509.067 170.813 510.331 170.257C514.371 168.482 518.28 165.965 521.832 163.382C533.809 154.67 546.293 146.834 558.499 138.451C569.046 131.209 579.48 123.956 590.906 118.093C593.638 116.692 598.17 113.414 601.299 112.998C602.068 112.896 602.97 113.615 603.748 113.712C605.448 113.922 606.945 113.406 608.504 113.968C611.08 114.896 614.164 116.125 616.878 116.374C620.029 116.662 622.973 117.421 626.046 118.215C626.828 118.417 626.717 118.072 626.534 117.807C626.361 117.554 626.123 117.373 626.534 117.807Z" fill="url(#paint1_linear_193_12)"/>
<path d="M627.134 118.412C625.037 116.352 627.807 118.67 626.046 118.215C622.973 117.421 620.029 116.662 616.878 116.374C614.164 116.125 611.08 114.896 608.504 113.968C606.945 113.406 605.448 113.922 603.748 113.712C602.97 113.615 602.068 112.896 601.299 112.998C598.17 113.414 593.638 116.692 590.906 118.093C579.48 123.956 569.046 131.209 558.499 138.451C546.293 146.834 533.809 154.67 521.832 163.382C518.28 165.965 514.371 168.482 510.331 170.257C509.067 170.813 506.383 171.515 505.451 172.522C504.929 173.087 506.99 172.558 507.758 172.611C510.358 172.791 512.929 173.21 515.501 173.618C522.496 174.728 528.986 175.547 535.652 177.648C536.264 177.841 536.975 178.404 537.627 178.159C542.361 176.374 546.939 172.734 551.277 170.177C562.416 163.611 573.184 156.195 583.608 148.543C595.681 139.682 608.738 130.223 622.435 123.725C626.031 122.019 630.437 121.657 627.134 118.412Z" stroke="black" stroke-width="5" stroke-linecap="round"/>
<path d="M597.466 83.6015C596.947 89.7799 592.25 96.447 589.511 101.847C579.453 107.776 569.157 113.266 559.098 119.195C546.342 126.714 533.685 134.449 520.756 141.667C514.468 145.177 508.246 148.831 501.927 152.282C501.542 151.628 499.875 148.631 500.579 146.99C503.794 139.501 506.349 131.984 508.039 123.916C509.405 117.393 514.877 113.96 520.359 110.729C529.728 105.206 539.67 100.529 548.709 94.4688C553.566 91.2124 557.604 87.5273 562.877 84.7973C573.992 79.0429 584.077 71.5595 595.506 66.4013C595.701 66.3132 601.525 63.2965 601.787 63.8905C601.931 64.2164 601.633 65.0638 601.646 65.4548C601.723 67.7448 600.098 70.4408 599.426 72.5598C598.278 76.1816 597.782 79.8293 597.466 83.6015Z" fill="url(#paint2_linear_193_12)"/>
<path d="M501.927 152.282C501.542 151.628 499.875 148.631 500.579 146.99C503.794 139.501 506.349 131.984 508.039 123.916C509.405 117.393 514.877 113.96 520.359 110.729C529.728 105.206 539.67 100.529 548.709 94.4688C553.566 91.2124 557.604 87.5273 562.877 84.7973C573.992 79.0429 584.077 71.5595 595.506 66.4013C595.701 66.3132 601.525 63.2965 601.787 63.8905C601.931 64.2164 601.633 65.0638 601.646 65.4548C601.723 67.7448 600.098 70.4408 599.426 72.5598C598.278 76.1816 597.782 79.8293 597.466 83.6015C596.947 89.7799 592.25 96.447 589.511 101.847C579.453 107.776 569.157 113.266 559.098 119.195C546.342 126.714 533.685 134.449 520.756 141.667C514.468 145.177 508.246 148.831 501.927 152.282ZM501.927 152.282C501.297 150.28 501.526 152.501 501.927 152.282Z" stroke="black" stroke-width="5" stroke-linecap="round"/>
<path d="M118.207 72.184C118.207 74.704 117.483 76.6873 116.037 78.134C117.67 78.5073 119.023 79.534 120.097 81.214C121.17 82.8473 121.707 84.574 121.707 86.394C121.707 89.3807 120.657 91.9007 118.557 93.954C117.11 95.5407 110.857 96.334 99.7968 96.334L99.7268 93.324C99.5868 88.004 99.5168 82.0307 99.5168 75.404C99.5168 71.204 100.03 68.2406 101.057 66.514C102.083 64.7873 104.183 63.924 107.357 63.924C110.53 63.924 113.12 64.694 115.127 66.234C117.18 67.7273 118.207 69.7106 118.207 72.184ZM105.187 69.174C104.673 69.6873 104.417 70.574 104.417 71.834V77.784C106.937 77.784 109.153 77.364 111.067 76.524C112.98 75.5907 113.937 74.144 113.937 72.184C113.937 71.064 113.377 70.154 112.257 69.454C111.183 68.7073 109.853 68.334 108.267 68.334C106.773 68.334 105.747 68.614 105.187 69.174ZM117.367 86.394C117.367 83.1273 115.43 81.494 111.557 81.494C109.597 81.494 107.193 81.6807 104.347 82.054L104.277 85.344C104.277 87.5373 104.393 89.7773 104.627 92.064C104.72 92.064 105.257 92.0873 106.237 92.134C107.217 92.134 108.803 91.9707 110.997 91.644C115.243 90.944 117.367 89.194 117.367 86.394ZM148.334 78.624C148.334 73.444 148.054 69.524 147.494 66.864L147.424 66.234C147.424 65.6273 147.704 65.0906 148.264 64.624C148.824 64.204 149.454 63.994 150.154 63.994C150.807 63.994 151.344 64.1573 151.764 64.484C152.231 64.8107 152.487 65.2307 152.534 65.744C153.001 70.2707 153.234 74.4007 153.234 78.134C153.234 80.234 153.164 81.914 153.024 83.174C152.697 87.7007 151.554 91.0373 149.594 93.184C147.681 95.284 144.717 96.334 140.704 96.334C137.857 96.334 135.431 95.5173 133.424 93.884C131.464 92.204 130.064 89.9407 129.224 87.094C128.011 82.894 127.404 78.274 127.404 73.234C127.404 71.274 127.521 69.0573 127.754 66.584C127.801 65.9773 128.151 65.464 128.804 65.044C129.457 64.5773 130.087 64.344 130.694 64.344C131.301 64.344 131.791 64.5306 132.164 64.904C132.537 65.2773 132.701 65.7673 132.654 66.374C132.421 68.5673 132.304 70.9473 132.304 73.514C132.304 74.7273 132.351 76.2673 132.444 78.134C132.724 81.914 133.587 85.1107 135.034 87.724C136.527 90.3373 138.417 91.644 140.704 91.644C145.791 91.644 148.334 87.304 148.334 78.624ZM176.978 64.134C177.351 63.9006 177.654 63.784 177.888 63.784C179.101 63.924 179.708 64.484 179.708 65.464C179.708 66.6307 179.078 68.2407 177.818 70.294L175.998 73.094L174.318 75.614L173.338 77.084C172.544 78.1106 171.821 79.184 171.168 80.304V86.394C171.168 90.594 171.028 93.3007 170.748 94.514C170.468 95.7273 169.604 96.334 168.158 96.334C167.738 96.334 167.434 96.2407 167.248 96.054C166.734 95.5407 166.478 94.0007 166.478 91.434L166.548 83.874C166.548 82.6607 166.478 81.424 166.338 80.164C164.331 77.5507 161.718 73.304 158.498 67.424C158.358 67.1907 158.288 66.934 158.288 66.654C158.288 66.3273 158.428 65.954 158.708 65.534C159.361 64.554 160.154 64.064 161.088 64.064C161.741 64.064 163.444 66.4206 166.198 71.134C167.318 73.094 168.228 74.5873 168.928 75.614L171.588 71.554L173.758 68.054C175.204 65.814 176.278 64.5073 176.978 64.134ZM187.82 99.344C186.56 99.344 185.93 98.6673 185.93 97.314C185.93 97.174 186 96.8473 186.14 96.334C189.686 87.934 193 79.6507 196.08 71.484C199.066 63.5973 202.38 55.244 206.02 46.424C206.673 45.2106 207.63 44.604 208.89 44.604C209.45 44.604 209.916 44.7673 210.29 45.094C210.663 45.4206 210.85 45.864 210.85 46.424C210.85 46.984 210.266 48.594 209.1 51.254C208.166 53.4473 205.343 60.5173 200.63 72.464C196.476 83.1973 193.07 91.6207 190.41 97.734C189.616 98.8073 188.753 99.344 187.82 99.344ZM234.149 65.184C235.876 65.9773 236.739 67.0506 236.739 68.404C236.739 69.0107 236.529 69.524 236.109 69.944C235.736 70.3173 235.339 70.504 234.919 70.504C234.173 70.504 232.983 70.1306 231.349 69.384C229.809 68.6373 228.316 68.264 226.869 68.264C225.516 68.264 224.116 68.6373 222.669 69.384C221.223 70.084 220.499 70.9707 220.499 72.044C220.499 73.1173 221.386 74.074 223.159 74.914C224.793 75.7073 226.893 76.4307 229.459 77.084C231.979 77.7373 233.589 78.344 234.289 78.904C234.989 79.3707 235.573 79.8373 236.039 80.304C236.459 80.6773 236.833 81.4006 237.159 82.474C237.533 83.5007 237.719 84.7373 237.719 86.184C237.719 89.5907 236.599 92.134 234.359 93.814C232.166 95.4473 229.529 96.264 226.449 96.264C223.416 96.264 220.803 95.774 218.609 94.794C216.416 93.814 215.319 92.6007 215.319 91.154C215.319 90.5007 215.553 89.9173 216.019 89.404C216.486 88.844 217.023 88.564 217.629 88.564C217.769 88.564 217.979 88.6107 218.259 88.704C222.599 90.4307 225.353 91.294 226.519 91.294C228.479 91.294 229.996 90.804 231.069 89.824C232.189 88.844 232.749 87.5607 232.749 85.974C232.749 84.714 232.353 83.7107 231.559 82.964C230.766 82.2173 229.786 81.6573 228.619 81.284C227.499 80.864 225.959 80.444 223.999 80.024L221.409 79.394C219.636 78.8806 218.189 78.064 217.069 76.944C215.856 75.7307 215.249 74.0507 215.249 71.904C215.249 69.7106 216.369 67.844 218.609 66.304C220.803 64.7173 223.533 63.924 226.799 63.924C229.973 63.924 232.423 64.344 234.149 65.184ZM255.947 80.654L248.947 80.584L249.087 89.754C249.087 91.014 249.063 91.6673 249.017 91.714L261.127 91.504C262.48 91.644 263.157 92.2273 263.157 93.254C263.157 95.214 262.247 96.194 260.427 96.194L246.707 96.334C245.54 96.334 244.817 95.8907 244.537 95.004C244.257 94.1173 244.117 92.9273 244.117 91.434V79.814C243.51 79.4873 243.207 78.974 243.207 78.274C243.207 77.6673 243.463 77.1073 243.977 76.594C243.837 72.954 243.767 69.6406 243.767 66.654C243.767 64.9273 244.817 64.0406 246.917 63.994H248.877L261.127 64.204H261.197C262.69 64.4373 263.437 65.1373 263.437 66.304C263.437 67.1906 263.157 67.8206 262.597 68.194C261.383 68.8473 258.467 69.174 253.847 69.174C252.167 69.174 250.44 69.104 248.667 68.964C248.667 73.3506 248.69 75.7073 248.737 76.034C249.95 76.0807 253.52 76.104 259.447 76.104C260.893 76.2906 261.617 76.944 261.617 78.064C261.617 78.624 261.383 79.1607 260.917 79.674C260.45 80.1873 259.937 80.4907 259.377 80.584C259.143 80.584 258.77 80.6073 258.257 80.654C257.743 80.654 256.973 80.654 255.947 80.654ZM282.118 96.124C280.018 96.3573 277.965 96.474 275.958 96.474L270.148 96.334C268.982 96.334 268.328 95.984 268.188 95.284C267.908 93.324 267.768 90.2673 267.768 86.114L268.258 65.814C268.258 64.6473 269.145 64.064 270.918 64.064C271.805 64.064 272.528 64.274 273.088 64.694C273.648 65.114 273.928 65.6973 273.928 66.444C273.882 67.7506 273.648 70.4573 273.228 74.564C272.668 79.0906 272.388 82.404 272.388 84.504C272.388 86.5573 272.458 89.0307 272.598 91.924L281.138 91.434C281.092 90.6407 281.068 88.8673 281.068 86.114L281.558 65.814C281.558 64.6473 282.445 64.064 284.218 64.064C285.105 64.064 285.828 64.274 286.388 64.694C286.948 65.114 287.228 65.6973 287.228 66.444C287.182 67.7506 286.948 70.4573 286.528 74.564C285.968 79.0906 285.688 82.404 285.688 84.504C285.688 86.5573 285.758 89.0307 285.898 91.924L296.258 91.294C297.798 91.294 298.568 92.0873 298.568 93.674C298.568 94.934 298.078 95.6807 297.098 95.914C295.138 96.2407 292.782 96.404 290.028 96.404L283.448 96.334C282.935 96.334 282.492 96.264 282.118 96.124Z" fill="black"/>
<path d="M118.417 174.184C120.143 174.977 121.007 176.051 121.007 177.404C121.007 178.011 120.797 178.524 120.377 178.944C120.003 179.317 119.607 179.504 119.187 179.504C118.44 179.504 117.25 179.131 115.617 178.384C114.077 177.637 112.583 177.264 111.137 177.264C109.783 177.264 108.383 177.637 106.937 178.384C105.49 179.084 104.767 179.971 104.767 181.044C104.767 182.117 105.653 183.074 107.427 183.914C109.06 184.707 111.16 185.431 113.727 186.084C116.247 186.737 117.857 187.344 118.557 187.904C119.257 188.371 119.84 188.837 120.307 189.304C120.727 189.677 121.1 190.401 121.427 191.474C121.8 192.501 121.987 193.737 121.987 195.184C121.987 198.591 120.867 201.134 118.627 202.814C116.433 204.447 113.797 205.264 110.717 205.264C107.683 205.264 105.07 204.774 102.877 203.794C100.683 202.814 99.5868 201.601 99.5868 200.154C99.5868 199.501 99.8201 198.917 100.287 198.404C100.753 197.844 101.29 197.564 101.897 197.564C102.037 197.564 102.247 197.611 102.527 197.704C106.867 199.431 109.62 200.294 110.787 200.294C112.747 200.294 114.263 199.804 115.337 198.824C116.457 197.844 117.017 196.561 117.017 194.974C117.017 193.714 116.62 192.711 115.827 191.964C115.033 191.217 114.053 190.657 112.887 190.284C111.767 189.864 110.227 189.444 108.267 189.024L105.677 188.394C103.903 187.881 102.457 187.064 101.337 185.944C100.123 184.731 99.5168 183.051 99.5168 180.904C99.5168 178.711 100.637 176.844 102.877 175.304C105.07 173.717 107.8 172.924 111.067 172.924C114.24 172.924 116.69 173.344 118.417 174.184ZM148.334 187.624C148.334 182.444 148.054 178.524 147.494 175.864L147.424 175.234C147.424 174.627 147.704 174.091 148.264 173.624C148.824 173.204 149.454 172.994 150.154 172.994C150.807 172.994 151.344 173.157 151.764 173.484C152.231 173.811 152.487 174.231 152.534 174.744C153.001 179.271 153.234 183.401 153.234 187.134C153.234 189.234 153.164 190.914 153.024 192.174C152.697 196.701 151.554 200.037 149.594 202.184C147.681 204.284 144.717 205.334 140.704 205.334C137.857 205.334 135.431 204.517 133.424 202.884C131.464 201.204 130.064 198.941 129.224 196.094C128.011 191.894 127.404 187.274 127.404 182.234C127.404 180.274 127.521 178.057 127.754 175.584C127.801 174.977 128.151 174.464 128.804 174.044C129.457 173.577 130.087 173.344 130.694 173.344C131.301 173.344 131.791 173.531 132.164 173.904C132.537 174.277 132.701 174.767 132.654 175.374C132.421 177.567 132.304 179.947 132.304 182.514C132.304 183.727 132.351 185.267 132.444 187.134C132.724 190.914 133.587 194.111 135.034 196.724C136.527 199.337 138.417 200.644 140.704 200.644C145.791 200.644 148.334 196.304 148.334 187.624ZM159.408 175.934C159.501 173.974 162.208 172.994 167.528 172.994C170.888 172.994 173.571 173.741 175.578 175.234C177.631 176.681 178.658 178.641 178.658 181.114C178.658 184.941 177.468 187.764 175.088 189.584C173.361 190.891 171.028 191.544 168.088 191.544C166.828 191.544 165.614 191.451 164.448 191.264C164.588 194.204 164.658 196.747 164.658 198.894C164.658 200.247 164.611 201.857 164.518 203.724C164.424 204.797 163.748 205.334 162.488 205.334C161.274 205.334 160.458 205.101 160.038 204.634C159.618 204.121 159.408 203.327 159.408 202.254V175.934ZM167.038 177.684C166.431 177.684 165.521 177.777 164.308 177.964C164.214 179.084 164.168 180.881 164.168 183.354V186.294C165.194 186.434 166.314 186.504 167.528 186.504C169.488 186.504 170.958 186.224 171.938 185.664C173.291 184.871 173.968 183.471 173.968 181.464V180.834C173.874 179.621 172.754 178.734 170.608 178.174C169.348 177.847 168.158 177.684 167.038 177.684ZM185.316 175.934C185.409 173.974 188.116 172.994 193.436 172.994C196.796 172.994 199.479 173.741 201.486 175.234C203.539 176.681 204.566 178.641 204.566 181.114C204.566 184.941 203.376 187.764 200.996 189.584C199.269 190.891 196.936 191.544 193.996 191.544C192.736 191.544 191.523 191.451 190.356 191.264C190.496 194.204 190.566 196.747 190.566 198.894C190.566 200.247 190.519 201.857 190.426 203.724C190.333 204.797 189.656 205.334 188.396 205.334C187.183 205.334 186.366 205.101 185.946 204.634C185.526 204.121 185.316 203.327 185.316 202.254V175.934ZM192.946 177.684C192.339 177.684 191.429 177.777 190.216 177.964C190.123 179.084 190.076 180.881 190.076 183.354V186.294C191.103 186.434 192.223 186.504 193.436 186.504C195.396 186.504 196.866 186.224 197.846 185.664C199.199 184.871 199.876 183.471 199.876 181.464V180.834C199.783 179.621 198.663 178.734 196.516 178.174C195.256 177.847 194.066 177.684 192.946 177.684ZM226.134 204.914C224.174 205.241 221.841 205.404 219.134 205.404L212.484 205.334C211.318 205.334 210.664 204.984 210.524 204.284C210.244 202.324 210.104 199.267 210.104 195.114L210.594 174.814C210.594 173.647 211.481 173.064 213.254 173.064C214.141 173.064 214.864 173.274 215.424 173.694C215.984 174.114 216.264 174.697 216.264 175.444C216.218 177.171 215.961 179.877 215.494 183.564C214.981 188.324 214.724 191.637 214.724 193.504C214.724 195.557 214.794 198.031 214.934 200.924L225.294 200.294C226.834 200.294 227.604 201.087 227.604 202.674C227.604 203.934 227.114 204.681 226.134 204.914ZM249.781 173.134C250.154 172.901 250.457 172.784 250.691 172.784C251.904 172.924 252.511 173.484 252.511 174.464C252.511 175.631 251.881 177.241 250.621 179.294L248.801 182.094L247.121 184.614L246.141 186.084C245.347 187.111 244.624 188.184 243.971 189.304V195.394C243.971 199.594 243.831 202.301 243.551 203.514C243.271 204.727 242.407 205.334 240.961 205.334C240.541 205.334 240.237 205.241 240.051 205.054C239.537 204.541 239.281 203.001 239.281 200.434L239.351 192.874C239.351 191.661 239.281 190.424 239.141 189.164C237.134 186.551 234.521 182.304 231.301 176.424C231.161 176.191 231.091 175.934 231.091 175.654C231.091 175.327 231.231 174.954 231.511 174.534C232.164 173.554 232.957 173.064 233.891 173.064C234.544 173.064 236.247 175.421 239.001 180.134C240.121 182.094 241.031 183.587 241.731 184.614L244.391 180.554L246.561 177.054C248.007 174.814 249.081 173.507 249.781 173.134Z" fill="black"/>
<path d="M801.447 96.404C791.74 96.404 786.887 89.0073 786.887 74.214C786.887 67.9606 788.007 62.454 790.247 57.694C791.367 55.2206 792.883 53.3073 794.797 51.954C796.757 50.554 798.95 49.854 801.377 49.854C804.97 49.854 807.933 52.234 810.267 56.994C812.6 61.754 813.767 67.3773 813.767 73.864C813.767 80.3973 812.693 85.7873 810.547 90.034C808.4 94.2807 805.367 96.404 801.447 96.404ZM795.147 85.204C796.78 88.3773 798.647 89.964 800.747 89.964C802.427 89.964 803.827 89.1007 804.947 87.374C806.113 85.694 806.907 83.734 807.327 81.494C807.747 79.0673 807.957 76.5473 807.957 73.934C807.957 69.6873 807.49 65.674 806.557 61.894C806.09 59.7006 805.367 57.974 804.387 56.714C803.453 55.454 802.31 54.824 800.957 54.824C799.183 54.824 797.62 55.9206 796.267 58.114C793.933 62.1273 792.767 67.4007 792.767 73.934C792.767 78.274 793.56 82.0307 795.147 85.204ZM853.544 51.534C853.824 51.9073 853.917 52.4206 853.824 53.074V54.404C853.824 55.1973 852.54 57.4373 849.974 61.124C848.34 63.1307 844.514 68.9407 838.494 78.554C834.76 84.3407 831.75 89.1473 829.464 92.974C828.25 94.8873 826.944 95.844 825.544 95.844C824.517 95.844 823.747 95.424 823.234 94.584C823 94.2107 822.884 93.7907 822.884 93.324C822.884 92.904 823.07 92.274 823.444 91.434C823.957 90.454 825.38 88.6107 827.714 85.904C830.047 83.104 832.824 79.0207 836.044 73.654C838.704 69.2206 841.06 65.3706 843.114 62.104C844.747 59.5373 845.797 57.7406 846.264 56.714C847.244 54.5673 848.387 52.934 849.694 51.814C850.72 51.2073 851.584 50.904 852.284 50.904C852.844 50.904 853.264 51.114 853.544 51.534ZM819.104 62.874C819.104 60.214 819.664 58.0206 820.784 56.294C822.977 52.794 826.314 51.044 830.794 51.044C833.314 51.044 835.367 51.7673 836.954 53.214C838.54 54.6606 839.334 56.7606 839.334 59.514C839.334 62.314 838.097 65.0906 835.624 67.844C833.15 70.5973 830.444 71.974 827.504 71.974C825.31 71.974 823.35 71.1106 821.624 69.384C819.944 67.6107 819.104 65.4407 819.104 62.874ZM832.054 64.764C833.407 63.5506 834.084 62.0573 834.084 60.284C834.084 56.8773 833.034 55.174 830.934 55.174C828.88 55.174 827.247 55.8507 826.034 57.204C824.82 58.5573 824.214 60.1906 824.214 62.104C824.214 63.924 824.447 65.1373 824.914 65.744C825.427 66.304 826.407 66.584 827.854 66.584C829.3 66.584 830.7 65.9773 832.054 64.764ZM841.154 93.604C839.567 92.1107 838.774 89.964 838.774 87.164C838.774 84.2707 839.94 81.704 842.274 79.464C844.607 77.224 847.104 76.104 849.764 76.104C852.377 76.104 854.5 77.0373 856.134 78.904C857.767 80.7707 858.584 83.1507 858.584 86.044C858.584 88.7973 857.534 91.1307 855.434 93.044C853.38 94.9107 850.884 95.844 847.944 95.844C845.05 95.844 842.787 95.0973 841.154 93.604ZM845.914 82.474C844.607 83.5473 843.954 84.8773 843.954 86.464C843.954 89.4973 845.4 91.014 848.294 91.014C849.6 91.014 850.86 90.4307 852.074 89.264C853.334 88.0507 853.964 86.884 853.964 85.764C853.964 83.7107 853.427 82.264 852.354 81.424C851.84 81.0506 851.234 80.864 850.534 80.864C848.807 80.864 847.267 81.4006 845.914 82.474Z" fill="black"/>
<path d="M815.117 161.584L814.627 180.414L814.837 202.044C814.837 204.331 813.6 205.474 811.127 205.474C810.567 205.474 810.1 205.241 809.727 204.774C809.353 204.307 809.167 203.631 809.167 202.744L808.957 184.964C808.957 179.084 809.027 173.554 809.167 168.374C807.58 169.774 806.04 171.384 804.547 173.204C803.52 174.464 802.493 175.677 801.467 176.844C800.86 177.544 800.137 178.174 799.297 178.734C798.457 179.247 797.687 179.504 796.987 179.504C796.287 179.504 795.703 179.247 795.237 178.734C794.77 178.221 794.537 177.591 794.537 176.844C794.537 176.144 795.073 175.141 796.147 173.834C797.08 172.714 801.14 168.351 808.327 160.744C809.4 159.764 810.753 159.274 812.387 159.274C813.18 159.274 813.833 159.507 814.347 159.974C814.86 160.441 815.117 160.977 815.117 161.584ZM846.146 201.974C843.16 204.121 838.446 205.194 832.006 205.194L822.976 204.984C822.416 202.837 822.113 194.017 822.066 178.524V173.554C822.066 169.494 822.44 166.484 823.186 164.524C823.98 162.424 825.543 160.744 827.876 159.484C829.043 158.877 830.723 158.574 832.916 158.574C835.11 158.574 836.79 158.714 837.956 158.994C840.943 159.647 843.043 160.837 844.256 162.564C845.47 164.244 846.076 166.647 846.076 169.774C846.076 173.927 844.98 176.984 842.786 178.944C843.813 179.084 844.886 179.621 846.006 180.554C847.126 181.441 848.083 182.467 848.876 183.634C850.09 185.547 850.696 188.091 850.696 191.264C850.696 196.211 849.18 199.781 846.146 201.974ZM827.596 168.654L827.666 171.104L827.806 179.084C828.086 179.084 828.88 178.991 830.186 178.804C830.84 178.711 832.1 178.477 833.966 178.104C838.68 176.984 841.036 174.301 841.036 170.054C841.036 168.001 840.43 166.484 839.216 165.504C838.05 164.477 836.416 163.964 834.316 163.964C831.796 163.964 830.093 164.407 829.206 165.294C829.113 165.387 828.95 165.551 828.716 165.784C828.483 165.971 828.296 166.181 828.156 166.414C828.016 166.647 827.9 166.997 827.806 167.464L827.596 168.654ZM836.976 183.984C834.97 183.984 831.843 184.287 827.596 184.894C827.596 191.847 827.713 196.771 827.946 199.664C833.453 199.664 837.28 199.314 839.426 198.614C841.62 197.821 843.09 196.934 843.836 195.954C844.63 194.881 845.026 193.481 845.026 191.754L844.956 190.074C844.956 189.467 844.816 188.744 844.536 187.904C844.256 187.064 843.883 186.434 843.416 186.014C842.856 185.454 842.133 184.987 841.246 184.614C840.266 184.194 838.843 183.984 836.976 183.984Z" fill="black"/>
<path d="M137.862 23.75C115.19 25.8111 90.1941 24.9679 68.0706 29.8843C65.3661 30.4853 28.2743 45.5355 25.8831 47.1296C20.7336 50.5626 18.3745 65.4008 16.6238 70.3935C14.0893 77.6217 12.4076 85.5193 9.21641 92.5C6.43372 98.5871 4.39117 114.275 5.16548 120.856C7.02216 136.638 7.13308 152.043 7.13308 167.963C7.13308 183.642 11.3566 199.625 9.10067 215.417C7.65231 225.555 5.04974 233.688 5.04974 244.583C5.04974 265.717 50.479 258.087 60.9525 256.157C76.6023 253.275 93.8248 255 109.679 255C143.654 255 177.686 252.917 211.763 252.917C247.265 252.917 281.935 249.278 317.318 248.75C334.434 248.495 351.49 246.667 368.707 246.667C382.403 246.667 395.374 247.463 408.985 249.676C441.044 254.887 471.05 257.083 503.429 257.083C539.733 257.083 576.037 257.083 612.341 257.083C627.39 257.083 642.008 253.211 656.902 251.296C676.045 248.835 696.424 250.833 715.698 250.833C750.344 250.833 785.76 253.566 820.212 249.676C835.786 247.918 850.855 246.667 866.508 246.667C871.071 246.667 876.604 247.548 881.091 246.551C888.984 244.797 905.214 245.861 911.3 240.417C915.322 236.817 917.55 223.645 917.55 218.542C917.55 198.776 922.258 179.221 921.716 159.167C921.299 143.723 919.918 126.311 916.624 111.25C913.059 94.9528 915.466 76.1877 915.466 59.6296C915.466 51.0763 915.82 39.3444 917.666 31.0417C919.572 22.4605 923.632 11.7238 911.3 9.62963C899.64 7.6497 887.203 9.67107 875.42 9.05093C849.307 7.67655 823.881 5 797.642 5C749.84 5 702.301 8.68471 654.587 9.16667C616.87 9.54764 578.794 7.08333 540.929 7.08333C500.923 7.08333 460.212 5.07786 420.328 8.7037C390.405 11.4239 360.4 17.5 330.397 17.5C299.098 17.5 267.738 21.6667 236.3 21.6667C220.552 21.6667 205.123 19.5833 189.425 19.5833C172.842 19.5833 157.476 23.75 140.466 23.75" stroke="black" stroke-width="9" stroke-linecap="round"/>
<defs>
<linearGradient id="paint0_linear_193_12" x1="522.99" y1="239.59" x2="499.874" y2="146.864" gradientUnits="userSpaceOnUse">
<stop stop-color="#14EBAB"/>
<stop offset="0.142768" stop-color="#19E6AD"/>
<stop offset="0.807551" stop-color="#D427FC"/>
</linearGradient>
<linearGradient id="paint1_linear_193_12" x1="501.362" y1="206.085" x2="478.702" y2="117.462" gradientUnits="userSpaceOnUse">
<stop stop-color="#14EBAB"/>
<stop offset="0.142768" stop-color="#19E6AD"/>
<stop offset="0.807551" stop-color="#D427FC"/>
</linearGradient>
<linearGradient id="paint2_linear_193_12" x1="487.94" y1="168.502" x2="466.288" y2="69.9517" gradientUnits="userSpaceOnUse">
<stop stop-color="#14EBAB"/>
<stop offset="0.142768" stop-color="#19E6AD"/>
<stop offset="0.807551" stop-color="#D427FC"/>
</linearGradient>
</defs>
</svg>
